{
    "asset" : {
        "generator" : "Khronos glTF Blender I/O v0.9.36",
        "version" : "2.0"
    },
    "scene" : 0,
    "scenes" : [
        {
            "name" : "Scene",
            "nodes" : [
                0,
                1,
                2,
                3,
                6,
                7,
                8
            ]
        }
    ],
    "nodes" : [
        {
            "name" : "Light",
            "rotation" : [
                0.16907575726509094,
                0.7558803558349609,
                -0.27217137813568115,
                0.570947527885437
            ],
            "translation" : [
                4.076245307922363,
                5.903861999511719,
                -1.0054539442062378
            ]
        },
        {
            "name" : "Camera",
            "rotation" : [
                0.483536034822464,
                0.33687159419059753,
                -0.20870360732078552,
                0.7804827094078064
            ],
            "translation" : [
                7.358891487121582,
                4.958309173583984,
                6.925790786743164
            ]
        },
        {
            "name" : "Light.001",
            "rotation" : [
                0.5232754945755005,
                0.3420339524745941,
                -0.7269423604011536,
                0.28416621685028076
            ],
            "translation" : [
                4.076245307922363,
                5.903862476348877,
                -1.0054532289505005
            ]
        },
        {
            "name" : "Camera.001",
            "rotation" : [
                0.8937963247299194,
                0.09062855690717697,
                -0.3857799172401428,
                0.20997287333011627
            ],
            "translation" : [
                7.358891487121582,
                4.958308696746826,
                6.925792217254639
            ]
        },
        {
            "name" : "PerspectiveCamera001",
            "rotation" : [
                0.483536034822464,
                -0.20870360732078552,
                -0.33687159419059753,
                0.7804827094078064
            ],
            "translation" : [
                7.358891010284424,
                6.925790786743164,
                -4.958309173583984
            ]
        },
        {
            "name" : "SketchUp",
            "scale" : [
                0.02539999969303608,
                0.02539999969303608,
                0.02539999969303608
            ]
        },
        {
            "children" : [
                4,
                5
            ],
            "name" : "Scene",
            "rotation" : [
                0.7071068286895752,
                0,
                0,
                0.7071067094802856
            ]
        },
        {
            "mesh" : 0,
            "name" : "15809_Thumbs_Up_v1",
            "rotation" : [
                0.7071068286895752,
                0,
                0,
                0.7071067094802856
            ],
            "scale" : [
                -0.019175784662365913,
                0.0008323586662299931,
                -0.017191627994179726
            ],
            "translation" : [
                0.4487943649291992,
                -0.38176587224006653,
                0.037059396505355835
            ]
        },
        {
            "mesh" : 1,
            "name" : "15809_Thumbs_Up_v1.001",
            "rotation" : [
                0.7071068286895752,
                0,
                0,
                0.7071067094802856
            ],
            "scale" : [
                0.019175784662365913,
                -0.0008323586662299931,
                -0.017191627994179726
            ],
            "translation" : [
                0.27429527044296265,
                -0.4154008626937866,
                -2.4639439582824707
            ]
        }
    ],
    "materials" : [
        {
            "doubleSided" : true,
            "name" : "_15809_Thumbs_Up_v1_15809_Thumbs_Up_v1_15809_Thumbs_Up_v1defaul",
            "pbrMetallicRoughness" : {
                "baseColorTexture" : {
                    "index" : 0,
                    "texCoord" : 0
                },
                "metallicFactor" : 0.3136363625526428,
                "roughnessFactor" : 0.5
            }
        },
        {
            "doubleSided" : true,
            "name" : "_15809_Thumbs_Up_v1_15809_Thumbs_Up_v1_15809_Thumbs_Up_v1de.000",
            "pbrMetallicRoughness" : {
                "baseColorTexture" : {
                    "index" : 1,
                    "texCoord" : 0
                },
                "metallicFactor" : 0.3136363625526428,
                "roughnessFactor" : 0.5
            }
        }
    ],
    "meshes" : [
        {
            "name" : "15809_Thumbs_Up_v1",
            "primitives" : [
                {
                    "attributes" : {
                        "POSITION" : 0,
                        "NORMAL" : 1,
                        "TEXCOORD_0" : 2
                    },
                    "indices" : 3,
                    "material" : 0
                }
            ]
        },
        {
            "name" : "15809_Thumbs_Up_v1.001",
            "primitives" : [
                {
                    "attributes" : {
                        "POSITION" : 4,
                        "NORMAL" : 5,
                        "TEXCOORD_0" : 6
                    },
                    "indices" : 3,
                    "material" : 1
                }
            ]
        }
    ],
    "textures" : [
        {
            "source" : 0
        },
        {
            "source" : 0
        }
    ],
    "images" : [
        {
            "bufferView" : 4,
            "mimeType" : "image/jpeg",
            "name" : "wooden-plank-textured-background-material_53876-33591"
        }
    ],
    "accessors" : [
        {
            "bufferView" : 0,
            "componentType" : 5126,
            "count" : 33590,
            "max" : [
                17.021099090576172,
                -0.9904000163078308,
                23.968399047851562
            ],
            "min" : [
                -8.509300231933594,
                -12.186300277709961,
                -0.9621000289916992
            ],
            "type" : "VEC3"
        },
        {
            "bufferView" : 1,
            "componentType" : 5126,
            "count" : 33590,
            "type" : "VEC3"
        },
        {
            "bufferView" : 2,
            "componentType" : 5126,
            "count" : 33590,
            "type" : "VEC2"
        },
        {
            "bufferView" : 3,
            "componentType" : 5123,
            "count" : 194496,
            "type" : "SCALAR"
        },
        {
            "bufferView" : 5,
            "componentType" : 5126,
            "count" : 33590,
            "max" : [
                17.021099090576172,
                -0.9904000163078308,
                23.968399047851562
            ],
            "min" : [
                -8.509300231933594,
                -12.186300277709961,
                -0.9621000289916992
            ],
            "type" : "VEC3"
        },
        {
            "bufferView" : 6,
            "componentType" : 5126,
            "count" : 33590,
            "type" : "VEC3"
        },
        {
            "bufferView" : 7,
            "componentType" : 5126,
            "count" : 33590,
            "type" : "VEC2"
        }
    ],
    "bufferViews" : [
        {
            "buffer" : 0,
            "byteLength" : 403080,
            "byteOffset" : 0
        },
        {
            "buffer" : 0,
            "byteLength" : 403080,
            "byteOffset" : 403080
        },
        {
            "buffer" : 0,
            "byteLength" : 268720,
            "byteOffset" : 806160
        },
        {
            "buffer" : 0,
            "byteLength" : 388992,
            "byteOffset" : 1074880
        },
        {
            "buffer" : 0,
            "byteLength" : 98148,
            "byteOffset" : 1463872
        },
        {
            "buffer" : 0,
            "byteLength" : 403080,
            "byteOffset" : 1562020
        },
        {
            "buffer" : 0,
            "byteLength" : 403080,
            "byteOffset" : 1965100
        },
        {
            "buffer" : 0,
            "byteLength" : 268720,
            "byteOffset" : 2368180
        }
    ],
    "buffers" : [
        {
            "byteLength" : 2636900,
            "uri" : "data:application/octet-stream;base64,"
        }
    ]
}
