{
    "asset" : {
        "generator" : "Khronos glTF Blender I/O v0.9.36",
        "version" : "2.0"
    },
    "scene" : 0,
    "scenes" : [
        {
            "name" : "Scene",
            "nodes" : [
                0,
                1,
                2,
                3,
                9,
                10,
                11,
                12
            ]
        }
    ],
    "nodes" : [
        {
            "name" : "Light",
            "rotation" : [
                0.16907575726509094,
                0.7558803558349609,
                -0.27217137813568115,
                0.570947527885437
            ],
            "translation" : [
                4.076245307922363,
                5.903861999511719,
                -1.0054539442062378
            ]
        },
        {
            "name" : "Camera",
            "rotation" : [
                0.483536034822464,
                0.33687159419059753,
                -0.20870360732078552,
                0.7804827094078064
            ],
            "translation" : [
                7.358891487121582,
                4.958309173583984,
                6.925790786743164
            ]
        },
        {
            "name" : "Light.001",
            "rotation" : [
                0.5232754945755005,
                0.3420339524745941,
                -0.7269423604011536,
                0.28416621685028076
            ],
            "translation" : [
                4.076245307922363,
                5.903862476348877,
                -1.0054532289505005
            ]
        },
        {
            "name" : "Camera.001",
            "rotation" : [
                0.8937963247299194,
                0.09062855690717697,
                -0.3857799172401428,
                0.20997287333011627
            ],
            "translation" : [
                7.358891487121582,
                4.958308696746826,
                6.925792217254639
            ]
        },
        {
            "mesh" : 0,
            "name" : "Cube.001",
            "scale" : [
                0.46206900477409363,
                0.23137889802455902,
                0.020845510065555573
            ],
            "translation" : [
                0.32745039463043213,
                -0.8027781844139099,
                -0.22046810388565063
            ]
        },
        {
            "mesh" : 1,
            "name" : "Cube001",
            "rotation" : [
                0,
                0.24282580614089966,
                0,
                0.9700700044631958
            ],
            "scale" : [
                0.24126742780208588,
                0.23137889802455902,
                0.0072859227657318115
            ],
            "translation" : [
                0.3820993900299072,
                -0.8049718737602234,
                -0.3481717109680176
            ]
        },
        {
            "mesh" : 2,
            "name" : "Cube002",
            "rotation" : [
                0,
                0.24282580614089966,
                0,
                0.9700700044631958
            ],
            "scale" : [
                0.24126742780208588,
                0.23137889802455902,
                0.0072859227657318115
            ],
            "translation" : [
                0.5278435945510864,
                -0.8054478168487549,
                -0.44080400466918945
            ]
        },
        {
            "name" : "PerspectiveCamera001",
            "rotation" : [
                0.483536034822464,
                -0.20870360732078552,
                -0.33687159419059753,
                0.7804827094078064
            ],
            "translation" : [
                7.358891010284424,
                6.925790786743164,
                -4.958309173583984
            ]
        },
        {
            "name" : "SketchUp",
            "scale" : [
                0.02539999969303608,
                0.02539999969303608,
                0.02539999969303608
            ]
        },
        {
            "children" : [
                4,
                5,
                6,
                7,
                8
            ],
            "name" : "Scene",
            "rotation" : [
                0.7071068286895752,
                0,
                0,
                0.7071067094802856
            ]
        },
        {
            "mesh" : 3,
            "name" : "Cube",
            "scale" : [
                0.2695291340351105,
                -0.09444499015808105,
                1.225811243057251
            ],
            "translation" : [
                0.35620102286338806,
                0.10259184241294861,
                -1.2133466005325317
            ]
        },
        {
            "mesh" : 4,
            "name" : "Cube.002",
            "rotation" : [
                0.7070993781089783,
                0.005384740885347128,
                -0.0032340565230697393,
                0.7070862650871277
            ],
            "scale" : [
                0.2729629874229431,
                -0.028392000123858452,
                0.46658483147621155
            ],
            "translation" : [
                0.35967370867729187,
                -0.26832783222198486,
                -0.000565011752769351
            ]
        },
        {
            "mesh" : 5,
            "name" : "Cube.003",
            "rotation" : [
                0.7070993781089783,
                0.005384740885347128,
                -0.0032340565230697393,
                0.7070862650871277
            ],
            "scale" : [
                0.2729629874229431,
                -0.028392000123858452,
                0.4665850102901459
            ],
            "translation" : [
                0.35967370867729187,
                -0.26832783222198486,
                -2.4206972122192383
            ]
        }
    ],
    "materials" : [
        {
            "name" : "Material_2",
            "pbrMetallicRoughness" : {
                "baseColorTexture" : {
                    "index" : 0,
                    "texCoord" : 0
                },
                "metallicFactor" : 0.5,
                "roughnessFactor" : 0.5
            }
        },
        {
            "name" : "Material_1",
            "pbrMetallicRoughness" : {
                "baseColorTexture" : {
                    "index" : 1,
                    "texCoord" : 0
                },
                "metallicFactor" : 0.5,
                "roughnessFactor" : 0.5
            }
        },
        {
            "name" : "Material_0",
            "pbrMetallicRoughness" : {
                "baseColorTexture" : {
                    "index" : 2,
                    "texCoord" : 0
                },
                "metallicFactor" : 0.5,
                "roughnessFactor" : 0.5
            }
        },
        {
            "doubleSided" : true,
            "name" : "Material.002",
            "pbrMetallicRoughness" : {
                "baseColorTexture" : {
                    "index" : 3,
                    "texCoord" : 0
                },
                "metallicFactor" : 0,
                "roughnessFactor" : 0.5
            }
        },
        {
            "doubleSided" : true,
            "name" : "Material.001",
            "pbrMetallicRoughness" : {
                "baseColorTexture" : {
                    "index" : 4,
                    "texCoord" : 0
                },
                "metallicFactor" : 0,
                "roughnessFactor" : 0.5
            }
        },
        {
            "doubleSided" : true,
            "name" : "Material.003",
            "pbrMetallicRoughness" : {
                "baseColorTexture" : {
                    "index" : 5,
                    "texCoord" : 0
                },
                "metallicFactor" : 0,
                "roughnessFactor" : 0.5
            }
        }
    ],
    "meshes" : [
        {
            "name" : "Mesh_0",
            "primitives" : [
                {
                    "attributes" : {
                        "POSITION" : 0,
                        "NORMAL" : 1,
                        "TEXCOORD_0" : 2
                    },
                    "indices" : 3,
                    "material" : 0
                }
            ]
        },
        {
            "name" : "Mesh_1",
            "primitives" : [
                {
                    "attributes" : {
                        "POSITION" : 4,
                        "NORMAL" : 5,
                        "TEXCOORD_0" : 6
                    },
                    "indices" : 3,
                    "material" : 1
                }
            ]
        },
        {
            "name" : "Mesh_2",
            "primitives" : [
                {
                    "attributes" : {
                        "POSITION" : 7,
                        "NORMAL" : 8,
                        "TEXCOORD_0" : 9
                    },
                    "indices" : 3,
                    "material" : 2
                }
            ]
        },
        {
            "name" : "Cube.001",
            "primitives" : [
                {
                    "attributes" : {
                        "POSITION" : 10,
                        "NORMAL" : 11,
                        "TEXCOORD_0" : 12
                    },
                    "indices" : 13,
                    "material" : 3
                }
            ]
        },
        {
            "name" : "Cube.002",
            "primitives" : [
                {
                    "attributes" : {
                        "POSITION" : 14,
                        "NORMAL" : 15,
                        "TEXCOORD_0" : 16
                    },
                    "indices" : 13,
                    "material" : 4
                }
            ]
        },
        {
            "name" : "Cube.003",
            "primitives" : [
                {
                    "attributes" : {
                        "POSITION" : 17,
                        "NORMAL" : 18,
                        "TEXCOORD_0" : 19
                    },
                    "indices" : 13,
                    "material" : 5
                }
            ]
        }
    ],
    "textures" : [
        {
            "source" : 0
        },
        {
            "source" : 1
        },
        {
            "source" : 2
        },
        {
            "source" : 3
        },
        {
            "source" : 3
        },
        {
            "source" : 3
        }
    ],
    "images" : [
        {
            "bufferView" : 4,
            "mimeType" : "image/png",
            "name" : "Image_0"
        },
        {
            "bufferView" : 8,
            "mimeType" : "image/png",
            "name" : "Image_1"
        },
        {
            "bufferView" : 12,
            "mimeType" : "image/png",
            "name" : "Image_2"
        },
        {
            "bufferView" : 17,
            "mimeType" : "image/jpeg",
            "name" : "antique-backdrop-background-129731"
        }
    ],
    "accessors" : [
        {
            "bufferView" : 0,
            "componentType" : 5126,
            "count" : 36,
            "max" : [
                1,
                1,
                1
            ],
            "min" : [
                -1,
                -1,
                -1
            ],
            "type" : "VEC3"
        },
        {
            "bufferView" : 1,
            "componentType" : 5126,
            "count" : 36,
            "type" : "VEC3"
        },
        {
            "bufferView" : 2,
            "componentType" : 5126,
            "count" : 36,
            "type" : "VEC2"
        },
        {
            "bufferView" : 3,
            "componentType" : 5123,
            "count" : 36,
            "type" : "SCALAR"
        },
        {
            "bufferView" : 5,
            "componentType" : 5126,
            "count" : 36,
            "max" : [
                1,
                1,
                1
            ],
            "min" : [
                -1,
                -1,
                -1
            ],
            "type" : "VEC3"
        },
        {
            "bufferView" : 6,
            "componentType" : 5126,
            "count" : 36,
            "type" : "VEC3"
        },
        {
            "bufferView" : 7,
            "componentType" : 5126,
            "count" : 36,
            "type" : "VEC2"
        },
        {
            "bufferView" : 9,
            "componentType" : 5126,
            "count" : 36,
            "max" : [
                1,
                1,
                1
            ],
            "min" : [
                -1,
                -1,
                -1
            ],
            "type" : "VEC3"
        },
        {
            "bufferView" : 10,
            "componentType" : 5126,
            "count" : 36,
            "type" : "VEC3"
        },
        {
            "bufferView" : 11,
            "componentType" : 5126,
            "count" : 36,
            "type" : "VEC2"
        },
        {
            "bufferView" : 13,
            "componentType" : 5126,
            "count" : 24,
            "max" : [
                1,
                1,
                1
            ],
            "min" : [
                -1,
                -1,
                -1
            ],
            "type" : "VEC3"
        },
        {
            "bufferView" : 14,
            "componentType" : 5126,
            "count" : 24,
            "type" : "VEC3"
        },
        {
            "bufferView" : 15,
            "componentType" : 5126,
            "count" : 24,
            "type" : "VEC2"
        },
        {
            "bufferView" : 16,
            "componentType" : 5123,
            "count" : 36,
            "type" : "SCALAR"
        },
        {
            "bufferView" : 18,
            "componentType" : 5126,
            "count" : 24,
            "max" : [
                1,
                1,
                1
            ],
            "min" : [
                -1,
                -1,
                -1
            ],
            "type" : "VEC3"
        },
        {
            "bufferView" : 19,
            "componentType" : 5126,
            "count" : 24,
            "type" : "VEC3"
        },
        {
            "bufferView" : 20,
            "componentType" : 5126,
            "count" : 24,
            "type" : "VEC2"
        },
        {
            "bufferView" : 21,
            "componentType" : 5126,
            "count" : 24,
            "max" : [
                1,
                1,
                1
            ],
            "min" : [
                -1,
                -1,
                -1
            ],
            "type" : "VEC3"
        },
        {
            "bufferView" : 22,
            "componentType" : 5126,
            "count" : 24,
            "type" : "VEC3"
        },
        {
            "bufferView" : 23,
            "componentType" : 5126,
            "count" : 24,
            "type" : "VEC2"
        }
    ],
    "bufferViews" : [
        {
            "buffer" : 0,
            "byteLength" : 432,
            "byteOffset" : 0
        },
        {
            "buffer" : 0,
            "byteLength" : 432,
            "byteOffset" : 432
        },
        {
            "buffer" : 0,
            "byteLength" : 288,
            "byteOffset" : 864
        },
        {
            "buffer" : 0,
            "byteLength" : 72,
            "byteOffset" : 1152
        },
        {
            "buffer" : 0,
            "byteLength" : 323486,
            "byteOffset" : 1224
        },
        {
            "buffer" : 0,
            "byteLength" : 432,
            "byteOffset" : 324712
        },
        {
            "buffer" : 0,
            "byteLength" : 432,
            "byteOffset" : 325144
        },
        {
            "buffer" : 0,
            "byteLength" : 288,
            "byteOffset" : 325576
        },
        {
            "buffer" : 0,
            "byteLength" : 323486,
            "byteOffset" : 325864
        },
        {
            "buffer" : 0,
            "byteLength" : 432,
            "byteOffset" : 649352
        },
        {
            "buffer" : 0,
            "byteLength" : 432,
            "byteOffset" : 649784
        },
        {
            "buffer" : 0,
            "byteLength" : 288,
            "byteOffset" : 650216
        },
        {
            "buffer" : 0,
            "byteLength" : 323486,
            "byteOffset" : 650504
        },
        {
            "buffer" : 0,
            "byteLength" : 288,
            "byteOffset" : 973992
        },
        {
            "buffer" : 0,
            "byteLength" : 288,
            "byteOffset" : 974280
        },
        {
            "buffer" : 0,
            "byteLength" : 192,
            "byteOffset" : 974568
        },
        {
            "buffer" : 0,
            "byteLength" : 72,
            "byteOffset" : 974760
        },
        {
            "buffer" : 0,
            "byteLength" : 1364853,
            "byteOffset" : 974832
        },
        {
            "buffer" : 0,
            "byteLength" : 288,
            "byteOffset" : 2339688
        },
        {
            "buffer" : 0,
            "byteLength" : 288,
            "byteOffset" : 2339976
        },
        {
            "buffer" : 0,
            "byteLength" : 192,
            "byteOffset" : 2340264
        },
        {
            "buffer" : 0,
            "byteLength" : 288,
            "byteOffset" : 2340456
        },
        {
            "buffer" : 0,
            "byteLength" : 288,
            "byteOffset" : 2340744
        },
        {
            "buffer" : 0,
            "byteLength" : 192,
            "byteOffset" : 2341032
        }
    ],
    "buffers" : [
        {
            "byteLength" : 2341224,
            "uri" : "data:application/octet-stream;base64,"
        }
    ]
}
