{
  "asset": {
    "version": "2.0",
    "generator": "THREE.GLTFExporter"
  },
  "scenes": [
    {
      "nodes": [
        0,
        1,
        2,
        3,
        6,
        7,
        8,
        11,
        12,
        13,
        14,
        15,
        18,
        19
      ],
      "name": "Scene"
    }
  ],
  "scene": 0,
  "nodes": [
    {
      "matrix": [
        -0.2908647428269262,
        -0.055189063886274425,
        -0.9551712048106182,
        0,
        0.5663932381446841,
        0.7946722584579202,
        -0.21839122503485697,
        0,
        0.7711008773539234,
        -0.6045247675783045,
        -0.19988344806390224,
        0,
        4.076245307922363,
        5.903861999511719,
        -1.0054539442062378,
        1
      ],
      "name": "Light"
    },
    {
      "matrix": [
        0.6859206666375535,
        -4.011331711240018e-9,
        -0.7276763385868836,
        0,
        0.6515582236083066,
        0.4452714146389205,
        0.6141703952861253,
        0,
        0.32401347963873484,
        -0.8953956629320512,
        0.30542086411130853,
        0,
        7.358891487121582,
        4.958309173583984,
        6.925790786743164,
        1
      ],
      "name": "Camera"
    },
    {
      "matrix": [
        -0.2908648399819871,
        -0.05518894956130538,
        -0.955171234951699,
        0,
        0.7711008921323312,
        -0.6045248771376706,
        -0.19988350217047568,
        0,
        -0.5663932577154824,
        -0.794672372826394,
        0.2183910642627449,
        0,
        4.076245307922363,
        5.903862476348877,
        -1.0054532289505005,
        1
      ],
      "name": "Light001"
    },
    {
      "matrix": [
        0.6859206402542223,
        3.0676648776761795e-7,
        -0.7276764213668281,
        0,
        0.32401357755035676,
        -0.8953960292930461,
        0.3054206105843891,
        0,
        -0.6515582673685805,
        -0.4452713193173663,
        -0.6141708108555779,
        0,
        7.358891487121582,
        4.958308696746826,
        6.925792217254639,
        1
      ],
      "name": "Camera001"
    },
    {
      "matrix": [
        0.6859206666375535,
        -0.7276763385868836,
        4.011331711240018e-9,
        0,
        0.32401347963873484,
        0.30542086411130853,
        0.8953956629320512,
        0,
        -0.6515582236083066,
        -0.6141703952861253,
        0.4452714146389205,
        0,
        7.358891010284424,
        6.925790786743164,
        -4.958309173583984,
        1
      ],
      "name": "PerspectiveCamera001"
    },
    {
      "matrix": [
        0.02539999969303608,
        0,
        0,
        0,
        0,
        0.02539999969303608,
        0,
        0,
        0,
        0,
        0.02539999969303608,
        0,
        0,
        0,
        0,
        1
      ],
      "name": "SketchUp"
    },
    {
      "matrix": [
        1,
        0,
        0,
        0,
        0,
        -1.3435885648505064e-7,
        0.9999999657714511,
        0,
        0,
        -0.9999999657714511,
        -1.3435885648505064e-7,
        0,
        0,
        0,
        0,
        1
      ],
      "name": "Scene",
      "children": [
        4,
        5
      ]
    },
    {
      "matrix": [
        -0.2908647992083644,
        -0.055188894092673024,
        -0.9551711772404516,
        0,
        0.7711007742843989,
        -0.6045248771376706,
        -0.19988352122063446,
        0,
        -0.5663933154267298,
        -0.7946722671179529,
        0.2183911050363676,
        0,
        4.076245307922363,
        5.903862476348877,
        -1.0054532289505005,
        1
      ],
      "name": "Light002"
    },
    {
      "matrix": [
        0.6859206402542223,
        3.0676648776761795e-7,
        -0.7276764213668281,
        0,
        0.32401357755035676,
        -0.8953960292930461,
        0.3054206105843891,
        0,
        -0.6515582673685805,
        -0.4452713193173663,
        -0.6141708108555779,
        0,
        7.358891487121582,
        4.958308696746826,
        6.925792217254639,
        1
      ],
      "name": "Camera002"
    },
    {
      "matrix": [
        0.9377069081462376,
        0,
        -0.004852643220653596,
        0,
        0,
        1,
        0,
        0,
        0.005174941339481931,
        0,
        0.9999866099016781,
        0,
        3.8424363136291504,
        2.2077152729034424,
        22.96775245666504,
        1
      ],
      "name": "instance_0",
      "mesh": 0
    },
    {
      "matrix": [
        0.7071066557635355,
        -0.7071069328531259,
        -1.50910896223877e-7,
        0,
        0.23570226318981113,
        0.23570192737368068,
        0.9428091755004271,
        0,
        -0.6666668265454483,
        -0.666666696177062,
        0.33333308127019556,
        0,
        48.2700080871582,
        29.936279296875,
        -29.201950073242188,
        1
      ],
      "name": "skp_camera_Last_Saved_SketchUp_View"
    },
    {
      "matrix": [
        0.02539999969303608,
        0,
        0,
        0,
        0,
        -4.86930664512315e-9,
        0.036241053294433404,
        0,
        0,
        -0.02540000254892112,
        -3.4127154140027094e-9,
        0,
        0,
        0,
        0,
        1
      ],
      "name": "SketchUp001",
      "children": [
        9,
        10
      ]
    },
    {
      "matrix": [
        1,
        0,
        0,
        0,
        0,
        -1,
        -2.6871768454839184e-7,
        0,
        0,
        2.6871768454839184e-7,
        -1,
        0,
        0,
        0,
        0,
        1
      ],
      "name": "Yup2Zup001"
    },
    {
      "matrix": [
        -0.29086466666542954,
        -0.9551711317987746,
        0.05518882902777733,
        0,
        -0.566393236109807,
        0.2183910642627449,
        0.7946722696734696,
        0,
        -0.7711007715988032,
        0.19988352377615115,
        -0.604524703821113,
        0,
        4.076245307922363,
        -1.0054532289505005,
        -5.903862476348877,
        1
      ],
      "name": "Light001"
    },
    {
      "matrix": [
        0.6859206429551636,
        -0.7276764290417534,
        -2.474593348011922e-7,
        0,
        -0.6515582596936551,
        -0.6141708081546366,
        0.44527142011762244,
        0,
        -0.3240136102203035,
        -0.3054207228817827,
        -0.8953960292930461,
        0,
        7.358891487121582,
        6.925792217254639,
        -4.958308696746826,
        1
      ],
      "name": "Camera001"
    },
    {
      "matrix": [
        1,
        0,
        0,
        0,
        0,
        -1.3435885648505064e-7,
        0.9999999657714511,
        0,
        0,
        -0.9999999657714511,
        -1.3435885648505064e-7,
        0,
        0,
        0,
        0,
        1
      ],
      "name": "Scene001"
    },
    {
      "matrix": [
        0.6859206666375535,
        -0.7276763385868836,
        4.011331711240018e-9,
        0,
        0.32401347963873484,
        0.30542086411130853,
        0.8953956629320512,
        0,
        -0.6515582236083066,
        -0.6141703952861253,
        0.4452714146389205,
        0,
        7.358891010284424,
        6.925790786743164,
        -4.958309173583984,
        1
      ],
      "name": "PerspectiveCamera001001"
    },
    {
      "matrix": [
        0.02539999969303608,
        0,
        0,
        0,
        0,
        0.02539999969303608,
        0,
        0,
        0,
        0,
        0.02539999969303608,
        0,
        0,
        0,
        0,
        1
      ],
      "name": "SketchUp001"
    },
    {
      "matrix": [
        1,
        0,
        0,
        0,
        0,
        -1.3435885648505064e-7,
        0.9999999657714511,
        0,
        0,
        -0.9999999657714511,
        -1.3435885648505064e-7,
        0,
        0,
        0,
        0,
        1
      ],
      "name": "Scene001",
      "children": [
        16,
        17
      ]
    },
    {
      "matrix": [
        0.02335068581507188,
        0.00013580337941203577,
        -5.006323232930488e-11,
        0,
        1.0208460550808211e-10,
        -1.0759645687640437e-8,
        0.032673375344707246,
        0,
        0.00014846324102332686,
        -0.02552748737511967,
        -8.406971718878377e-9,
        0,
        0.11103703081607819,
        -0.6019405126571655,
        -2.441985607147217,
        1
      ],
      "name": "instance_0001",
      "mesh": 1
    }
  ],
  "bufferViews": [
    {
      "buffer": 0,
      "byteOffset": 0,
      "byteLength": 1416,
      "target": 34962,
      "byteStride": 12
    },
    {
      "buffer": 0,
      "byteOffset": 1416,
      "byteLength": 1416,
      "target": 34962,
      "byteStride": 12
    },
    {
      "buffer": 0,
      "byteOffset": 2832,
      "byteLength": 944,
      "target": 34962,
      "byteStride": 8
    },
    {
      "buffer": 0,
      "byteOffset": 3776,
      "byteLength": 288,
      "target": 34963
    },
    {
      "buffer": 0,
      "byteOffset": 4064,
      "byteLength": 1416,
      "target": 34962,
      "byteStride": 12
    },
    {
      "buffer": 0,
      "byteOffset": 5480,
      "byteLength": 1416,
      "target": 34962,
      "byteStride": 12
    },
    {
      "buffer": 0,
      "byteOffset": 6896,
      "byteLength": 944,
      "target": 34962,
      "byteStride": 8
    },
    {
      "buffer": 0,
      "byteOffset": 7840,
      "byteLength": 288,
      "target": 34963
    }
  ],
  "buffers": [
    {
      "byteLength": 8128,
      "uri": "data:application/octet-stream;base64,"
    }
  ],
  "accessors": [
    {
      "bufferView": 0,
      "componentType": 5126,
      "count": 118,
      "max": [
        21.668190002441406,
        0,
        0
      ],
      "min": [
        0,
        -1.6062990427017212,
        -26.562219619750977
      ],
      "type": "VEC3"
    },
    {
      "bufferView": 1,
      "componentType": 5126,
      "count": 118,
      "max": [
        0.8953495621681213,
        1,
        1
      ],
      "min": [
        -0.8487961292266846,
        -1,
        -1
      ],
      "type": "VEC3"
    },
    {
      "bufferView": 2,
      "componentType": 5126,
      "count": 118,
      "max": [
        0.804416298866272,
        1.3180322647094727
      ],
      "min": [
        -0.804416298866272,
        -0.1763089895248413
      ],
      "type": "VEC2"
    },
    {
      "bufferView": 3,
      "componentType": 5123,
      "count": 144,
      "max": [
        117
      ],
      "min": [
        0
      ],
      "type": "SCALAR"
    },
    {
      "bufferView": 4,
      "componentType": 5126,
      "count": 118,
      "max": [
        21.668190002441406,
        0,
        0
      ],
      "min": [
        0,
        -1.6062990427017212,
        -26.562219619750977
      ],
      "type": "VEC3"
    },
    {
      "bufferView": 5,
      "componentType": 5126,
      "count": 118,
      "max": [
        0.8953495621681213,
        1,
        1
      ],
      "min": [
        -0.8487961292266846,
        -1,
        -1
      ],
      "type": "VEC3"
    },
    {
      "bufferView": 6,
      "componentType": 5126,
      "count": 118,
      "max": [
        0.804416298866272,
        1.3180322647094727
      ],
      "min": [
        -0.804416298866272,
        -0.1763089895248413
      ],
      "type": "VEC2"
    },
    {
      "bufferView": 7,
      "componentType": 5123,
      "count": 144,
      "max": [
        117
      ],
      "min": [
        0
      ],
      "type": "SCALAR"
    }
  ],
  "materials": [
    {
      "pbrMetallicRoughness": {
        "metallicFactor": 0,
        "roughnessFactor": 0.5,
        "baseColorTexture": {
          "index": 0
        }
      },
      "doubleSided": true,
      "name": "material_1"
    },
    {
      "pbrMetallicRoughness": {
        "metallicFactor": 0,
        "roughnessFactor": 0.5,
        "baseColorTexture": {
          "index": 1
        }
      },
      "doubleSided": true,
      "name": "material_1.003"
    }
  ],
  "textures": [
    {
      "sampler": 0,
      "source": 0
    },
    {
      "sampler": 1,
      "source": 1
    }
  ],
  "samplers": [
    {
      "magFilter": 9729,
      "minFilter": 9987
    },
    {
      "magFilter": 9729,
      "minFilter": 9987
    }
  ],
  "images": [
    {
      "mimeType": "image/png",
      "uri": "data:image/png;base64,"
    },
    {
      "mimeType": "image/png",
      "uri": "data:image/png;base64,"
    }
  ],
  "meshes": [
    {
      "primitives": [
        {
          "mode": 4,
          "attributes": {
            "POSITION": 0,
            "NORMAL": 1,
            "TEXCOORD_0": 2
          },
          "indices": 3,
          "material": 0
        }
      ]
    },
    {
      "primitives": [
        {
          "mode": 4,
          "attributes": {
            "POSITION": 4,
            "NORMAL": 5,
            "TEXCOORD_0": 6
          },
          "indices": 7,
          "material": 1
        }
      ]
    }
  ]
}