{
  "asset": {
    "version": "2.0",
    "generator": "THREE.GLTFExporter"
  },
  "scenes": [
    {
      "nodes": [
        0,
        1,
        4,
        5,
        6,
        7,
        8,
        11,
        12
      ],
      "name": "Scene"
    }
  ],
  "scene": 0,
  "nodes": [
    {
      "matrix": [
        -0.2908647428269262,
        -0.055189063886274425,
        -0.9551712048106182,
        0,
        0.5663932381446841,
        0.7946722584579202,
        -0.21839122503485697,
        0,
        0.7711008773539234,
        -0.6045247675783045,
        -0.19988344806390224,
        0,
        4.076245307922363,
        5.903861999511719,
        -1.0054539442062378,
        1
      ],
      "name": "Light"
    },
    {
      "matrix": [
        0.6859206666375535,
        -4.011331711240018e-9,
        -0.7276763385868836,
        0,
        0.6515582236083066,
        0.4452714146389205,
        0.6141703952861253,
        0,
        0.32401347963873484,
        -0.8953956629320512,
        0.30542086411130853,
        0,
        7.358891487121582,
        4.958309173583984,
        6.925790786743164,
        1
      ],
      "name": "Camera"
    },
    {
      "matrix": [
        1,
        0,
        0,
        0,
        0,
        1,
        0,
        0,
        0,
        0,
        1,
        0,
        0.9461305141448975,
        -22.563749313354492,
        1.497239351272583,
        1
      ],
      "name": "instance_0",
      "mesh": 0
    },
    {
      "matrix": [
        0.7071066930116441,
        8.186954048028383e-8,
        -0.7071068615523082,
        0,
        0.6666667575040925,
        0.33333320844318415,
        0.6666666194213953,
        0,
        0.23570224456576838,
        -0.9428090724063729,
        0.23570209179477786,
        0,
        48.2700080871582,
        29.201950073242188,
        29.936279296875,
        1
      ],
      "name": "skp_camera_Last_Saved_SketchUp_View"
    },
    {
      "matrix": [
        0.02539999969303608,
        0,
        0,
        0,
        0,
        0.02539999969303608,
        0,
        0,
        0,
        0,
        0.03624105080962181,
        0,
        0,
        0,
        0,
        1
      ],
      "name": "SketchUp",
      "children": [
        2,
        3
      ]
    },
    {
      "matrix": [
        1,
        0,
        0,
        0,
        0,
        3.422854177870249e-8,
        0.9999999657714582,
        0,
        0,
        -0.9999999657714582,
        3.422854177870249e-8,
        0,
        0,
        0,
        0,
        1
      ],
      "name": "Yup2Zup"
    },
    {
      "matrix": [
        -0.2908647752722846,
        -0.9551711328916985,
        0.05518904294504878,
        0,
        0.7711007690569227,
        -0.19988345814160313,
        0.6045248094924442,
        0,
        -0.5663932622574386,
        0.21839127322867746,
        0.7946722159348609,
        0,
        4.076245307922363,
        -1.0054539442062378,
        -5.903861999511719,
        1
      ],
      "name": "Light001"
    },
    {
      "matrix": [
        0.6859206666375535,
        -0.7276763385868836,
        4.011331711240018e-9,
        0,
        0.32401347963873484,
        0.30542086411130853,
        0.8953956629320512,
        0,
        -0.6515582236083066,
        -0.6141703952861253,
        0.4452714146389205,
        0,
        7.358891487121582,
        6.925790786743164,
        -4.958309173583984,
        1
      ],
      "name": "Camera001"
    },
    {
      "name": "Scene"
    },
    {
      "matrix": [
        0.6859206666375535,
        -4.011331711240018e-9,
        -0.7276763385868836,
        0,
        0.6515582236083066,
        0.4452714146389205,
        0.6141703952861253,
        0,
        0.32401347963873484,
        -0.8953956629320512,
        0.30542086411130853,
        0,
        7.358891010284424,
        4.958309173583984,
        6.925790786743164,
        1
      ],
      "name": "PerspectiveCamera001"
    },
    {
      "matrix": [
        0.02539999969303608,
        0,
        0,
        0,
        0,
        0.02539999969303608,
        0,
        0,
        0,
        0,
        0.02539999969303608,
        0,
        0,
        0,
        0,
        1
      ],
      "name": "SketchUp001"
    },
    {
      "name": "Scene001",
      "children": [
        9,
        10
      ]
    },
    {
      "matrix": [
        0.024240855127573013,
        0,
        0,
        0,
        0,
        0.025527913123369217,
        0,
        0,
        0,
        0,
        0.032673366367816925,
        0,
        0.03383684903383255,
        -0.592242956161499,
        -2.444096565246582,
        1
      ],
      "name": "instance_0001",
      "mesh": 1
    }
  ],
  "bufferViews": [
    {
      "buffer": 0,
      "byteOffset": 0,
      "byteLength": 1380,
      "target": 34962,
      "byteStride": 12
    },
    {
      "buffer": 0,
      "byteOffset": 1380,
      "byteLength": 1380,
      "target": 34962,
      "byteStride": 12
    },
    {
      "buffer": 0,
      "byteOffset": 2760,
      "byteLength": 920,
      "target": 34962,
      "byteStride": 8
    },
    {
      "buffer": 0,
      "byteOffset": 3680,
      "byteLength": 288,
      "target": 34963
    },
    {
      "buffer": 0,
      "byteOffset": 3968,
      "byteLength": 1380,
      "target": 34962,
      "byteStride": 12
    },
    {
      "buffer": 0,
      "byteOffset": 5348,
      "byteLength": 1380,
      "target": 34962,
      "byteStride": 12
    },
    {
      "buffer": 0,
      "byteOffset": 6728,
      "byteLength": 920,
      "target": 34962,
      "byteStride": 8
    },
    {
      "buffer": 0,
      "byteOffset": 7648,
      "byteLength": 288,
      "target": 34963
    }
  ],
  "buffers": [
    {
      "byteLength": 7936,
      "uri": "data:application/octet-stream;base64,"
    }
  ],
  "accessors": [
    {
      "bufferView": 0,
      "componentType": 5126,
      "count": 115,
      "max": [
        21.668190002441406,
        26.562219619750977,
        0
      ],
      "min": [
        0,
        0,
        -1.6062990427017212
      ],
      "type": "VEC3"
    },
    {
      "bufferView": 1,
      "componentType": 5126,
      "count": 115,
      "max": [
        0.8953495621681213,
        1,
        1
      ],
      "min": [
        -0.8487961292266846,
        -1,
        -1
      ],
      "type": "VEC3"
    },
    {
      "bufferView": 2,
      "componentType": 5126,
      "count": 115,
      "max": [
        0.804416298866272,
        1.3180322647094727
      ],
      "min": [
        -0.804416298866272,
        -0.1763089895248413
      ],
      "type": "VEC2"
    },
    {
      "bufferView": 3,
      "componentType": 5123,
      "count": 144,
      "max": [
        114
      ],
      "min": [
        0
      ],
      "type": "SCALAR"
    },
    {
      "bufferView": 4,
      "componentType": 5126,
      "count": 115,
      "max": [
        21.668190002441406,
        26.562219619750977,
        0
      ],
      "min": [
        0,
        0,
        -1.6062990427017212
      ],
      "type": "VEC3"
    },
    {
      "bufferView": 5,
      "componentType": 5126,
      "count": 115,
      "max": [
        0.8953495621681213,
        1,
        1
      ],
      "min": [
        -0.8487961292266846,
        -1,
        -1
      ],
      "type": "VEC3"
    },
    {
      "bufferView": 6,
      "componentType": 5126,
      "count": 115,
      "max": [
        0.804416298866272,
        1.3180322647094727
      ],
      "min": [
        -0.804416298866272,
        -0.1763089895248413
      ],
      "type": "VEC2"
    },
    {
      "bufferView": 7,
      "componentType": 5123,
      "count": 144,
      "max": [
        114
      ],
      "min": [
        0
      ],
      "type": "SCALAR"
    }
  ],
  "materials": [
    {
      "pbrMetallicRoughness": {
        "metallicFactor": 0,
        "roughnessFactor": 0.5,
        "baseColorTexture": {
          "index": 0
        }
      },
      "doubleSided": true,
      "name": "material_1"
    },
    {
      "pbrMetallicRoughness": {
        "metallicFactor": 0,
        "roughnessFactor": 0.5,
        "baseColorTexture": {
          "index": 1
        }
      },
      "doubleSided": true,
      "name": "material_1.003"
    }
  ],
  "textures": [
    {
      "sampler": 0,
      "source": 0
    },
    {
      "sampler": 1,
      "source": 1
    }
  ],
  "samplers": [
    {
      "magFilter": 9729,
      "minFilter": 9987
    },
    {
      "magFilter": 9729,
      "minFilter": 9987
    }
  ],
  "images": [
    {
      "mimeType": "image/png",
      "uri": "data:image/png;base64,"
    },
    {
      "mimeType": "image/png",
      "uri": "data:image/png;base64,"
    }
  ],
  "meshes": [
    {
      "primitives": [
        {
          "mode": 4,
          "attributes": {
            "POSITION": 0,
            "NORMAL": 1,
            "TEXCOORD_0": 2
          },
          "indices": 3,
          "material": 0
        }
      ]
    },
    {
      "primitives": [
        {
          "mode": 4,
          "attributes": {
            "POSITION": 4,
            "NORMAL": 5,
            "TEXCOORD_0": 6
          },
          "indices": 7,
          "material": 1
        }
      ]
    }
  ]
}